<svg width="75" height="75" viewBox="0 0 75 75" fill="none" xmlns="http://www.w3.org/2000/svg">
<path d="M72.8906 37.4678H68.9149C73.0006 31.1022 69.8988 26.2679 66.8956 25.307C63.3099 24.1621 60.7704 25.9702 59.5398 28.6969C58.0601 26.2551 55.7694 24.1621 52.1847 25.307C49.1808 26.2682 46.0787 31.1022 50.1644 37.4678H41.0025L44.0771 32.9108C44.3766 32.467 44.4873 31.9224 44.3854 31.3971C44.2832 30.8716 43.9767 30.4082 43.5329 30.109L32.8666 22.9126C31.943 22.2892 30.6879 22.5326 30.0648 23.4567L26.3545 28.9563C25.2341 28.2693 23.958 27.9037 22.6411 27.9037C20.2658 27.9037 18.0553 29.0781 16.7281 31.0452C15.7866 32.4411 15.1841 34.0214 14.8052 35.5956C13.8538 34.2376 12.69 32.962 11.2825 32.0122C10.1001 31.2145 8.72339 30.7929 7.30127 30.7929C4.92602 30.7929 2.71552 31.967 1.38825 33.9343C-0.809132 37.1921 0.0529195 41.6305 3.3104 43.8286C4.73731 44.7913 6.35445 45.3978 7.95569 45.7747C6.62767 46.7157 5.38341 47.8606 4.45249 49.2401C3.38785 50.8181 3.00135 52.7163 3.36439 54.5855C3.70699 56.3504 4.68055 57.8891 6.1173 58.9517L2.26847 64.6569C1.96901 65.1006 1.85826 65.6453 1.96018 66.1706C2.06236 66.6961 2.36888 67.1595 2.81265 67.4587L13.4787 74.6546C13.8248 74.8882 14.2174 75 14.6059 75C15.254 75 15.8489 74.6882 16.2387 74.1104L25.1248 60.8769V72.7872C25.1248 73.9018 26.1125 74.8055 27.2271 74.8055H72.8904C74.0049 74.8055 74.8246 73.9018 74.8246 72.7872V39.4858C74.8249 38.3715 74.0052 37.4678 72.8906 37.4678ZM7.32725 53.8155C7.16983 53.0052 7.33734 52.182 7.79902 51.4975C9.28245 49.2986 12.0745 47.8321 14.1959 46.9774L12.2864 49.808L12.2861 49.8082L8.38003 55.5981C7.83434 55.1443 7.46449 54.5219 7.32725 53.8155ZM4.73479 36.192C5.31025 35.3388 6.26993 34.8297 7.30152 34.8297C7.91633 34.8297 8.51223 35.0126 9.02512 35.3587C11.4145 36.9708 12.9413 40.1296 13.7552 42.2925C13.5518 42.298 13.3397 42.301 13.1192 42.301C10.9044 42.301 7.796 41.9857 5.56808 40.4826C4.1558 39.5295 3.78167 37.6045 4.73479 36.192ZM22.6411 31.9403C23.1507 31.9403 23.6462 32.0677 24.0935 32.3076L18.2524 40.9655C18.2486 38.5748 18.6164 35.4637 20.0746 33.3029C20.6501 32.4496 21.6095 31.9403 22.6411 31.9403ZM22.4052 42.0273L29.725 46.9655L24.0814 55.331L16.7614 50.3928L22.4052 42.0273ZM45.8123 41.5043H54.1376V70.7692H45.8123V41.5043Z" fill="#1c1c1c"/>
<path d="M45.1336 24.9917C57.8873 16.8543 54.3508 9.60393 50.9735 8.5234C48.1272 7.61417 46.1112 9.04992 45.1336 11.2143C43.959 9.27596 42.1406 7.61417 39.2945 8.5234C35.9162 9.60393 32.3795 16.8545 45.1336 24.9917Z" fill="#1c1c1c"/>
<path d="M62.5456 15.426C74.2939 7.93015 71.0365 1.25146 67.9248 0.255695C65.3026 -0.581885 63.4458 0.740583 62.5456 2.73438C61.4636 0.948968 59.7882 -0.582138 57.1667 0.255695C54.0543 1.25146 50.7963 7.9304 62.5456 15.426Z" fill="#1c1c1c"/>
</svg>
