<svg width="15" height="16" viewBox="0 0 15 16" fill="none" xmlns="http://www.w3.org/2000/svg">
<path d="M1.70711 0.810956C1.31659 0.420436 0.683417 0.420436 0.292897 0.810956C-0.0976325 1.20148 -0.0976325 1.83465 0.292897 2.22517L6.06765 7.9999L0.292958 13.7746C-0.0975724 14.1651 -0.0975724 14.7983 0.292958 15.1888C0.683478 15.5793 1.31665 15.5793 1.70717 15.1888L7.48185 9.4141L13.2565 15.1888C13.647 15.5793 14.2802 15.5793 14.6707 15.1888C15.0612 14.7983 15.0612 14.1651 14.6707 13.7746L8.89605 7.9999L14.6707 2.22517C15.0613 1.83465 15.0613 1.20148 14.6707 0.810956C14.2802 0.420436 13.6471 0.420436 13.2565 0.810956L7.48185 6.5857L1.70711 0.810956Z" fill="#1C1C1C"/>
</svg>
