<svg width="22" height="30" viewBox="0 0 22 30" fill="none" xmlns="http://www.w3.org/2000/svg">
<path d="M11 30L10.3231 29.2603C9.9 28.8493 0 17.5068 0 10.6849C0 4.76712 4.90769 0 11 0C17.0923 0 22 4.76712 22 10.6849C22 17.5068 12.1 28.8493 11.6769 29.3425L11 30ZM11 1.64384C5.83846 1.64384 1.69231 5.67123 1.69231 10.6849C1.69231 15.9452 8.8 24.8219 11 27.4521C13.2 24.8219 20.3077 15.9452 20.3077 10.6849C20.3077 5.67123 16.1615 1.64384 11 1.64384Z" fill="#111111"/>
<path d="M11 14.5161C8.76 14.5161 7 12.8129 7 10.6451C7 8.4774 8.76 6.77417 11 6.77417C13.24 6.77417 15 8.4774 15 10.6451C15 12.8129 13.24 14.5161 11 14.5161ZM11 8.32256C9.64 8.32256 8.6 9.32901 8.6 10.6451C8.6 11.9613 9.64 12.9677 11 12.9677C12.36 12.9677 13.4 11.9613 13.4 10.6451C13.4 9.32901 12.36 8.32256 11 8.32256Z" fill="#111111"/>
</svg>
