<svg width="30" height="25" viewBox="0 0 30 25" fill="none" xmlns="http://www.w3.org/2000/svg">
<path d="M29.0041 0H0.995843C0.731757 0.000333118 0.478581 0.113417 0.29188 0.314432C0.105179 0.515448 0.000206217 0.787973 0 1.0722V3.22917C0 3.32854 0.10013 3.4426 0.181948 3.48872L14.9038 12.5389C14.9415 12.5621 14.9842 12.5741 15.0277 12.5737C15.072 12.5738 15.1157 12.5611 15.1539 12.5368L29.4308 3.49753C29.511 3.44931 29.7237 3.32184 29.8036 3.26313C29.9002 3.19227 30 3.12811 30 3.00106V1.07178C29.9997 0.787626 29.8946 0.515209 29.708 0.314284C29.5213 0.113359 29.2682 0.000332924 29.0041 0V0Z" fill="#1C1C1C"/>
<path d="M29.8756 6.48127C29.8373 6.45774 29.7939 6.44551 29.7498 6.44581C29.7056 6.4461 29.6624 6.45891 29.6243 6.48295L21.545 11.599C21.5128 11.6192 21.4852 11.647 21.4644 11.6802C21.4435 11.7134 21.4298 11.7513 21.4244 11.7909C21.419 11.8306 21.4219 11.8711 21.433 11.9094C21.4441 11.9476 21.4631 11.9828 21.4885 12.0121L29.569 21.3868C29.5922 21.4138 29.6203 21.4354 29.6516 21.4501C29.6829 21.4649 29.7168 21.4724 29.751 21.4723C29.8169 21.4722 29.8802 21.4439 29.9269 21.3937C29.9735 21.3435 29.9998 21.2754 29.9999 21.2044V6.71399C30.0001 6.66685 29.9887 6.62051 29.9669 6.57964C29.945 6.53877 29.9136 6.50484 29.8756 6.48127Z" fill="#1C1C1C"/>
<path d="M19.2167 13.317C19.1784 13.2721 19.1268 13.2426 19.0708 13.2336C19.0147 13.2246 18.9574 13.2366 18.9085 13.2675L15.6701 15.3184C15.4804 15.4364 15.2654 15.4993 15.0462 15.5008C14.8271 15.5024 14.6114 15.4425 14.4202 15.3272L11.5702 13.5749C11.5242 13.5467 11.4711 13.535 11.4185 13.5415C11.3658 13.548 11.3165 13.5723 11.2776 13.611L0.455044 24.4151C0.426671 24.4437 0.404887 24.4789 0.391427 24.5182C0.377968 24.5574 0.373205 24.5994 0.37752 24.641C0.381834 24.6825 0.395105 24.7224 0.416276 24.7574C0.437446 24.7925 0.465931 24.8217 0.499459 24.8428C0.66777 24.9493 0.830238 25.0001 0.995433 25.0001H28.7174C28.7659 25.0002 28.8133 24.9849 28.8539 24.9562C28.8944 24.9275 28.9262 24.8866 28.9453 24.8386C28.9647 24.7909 28.9707 24.7381 28.9626 24.6867C28.9544 24.6354 28.9324 24.5877 28.8993 24.5497L19.2167 13.317Z" fill="#1C1C1C"/>
<path d="M8.89636 12.3333C8.92503 12.3048 8.94706 12.2694 8.96067 12.23C8.97429 12.1906 8.97912 12.1484 8.97476 12.1066C8.97039 12.0649 8.95697 12.0248 8.93557 11.9897C8.91417 11.9545 8.88539 11.9253 8.85156 11.9043L0.371302 6.69138C0.333456 6.66825 0.290633 6.65622 0.247113 6.6565C0.203593 6.65677 0.160903 6.66934 0.123313 6.69294C0.0857223 6.71655 0.0545485 6.75036 0.0329091 6.791C0.0112696 6.83164 -7.69453e-05 6.87768 3.97275e-06 6.92452V20.6027C-0.000270613 20.6549 0.0136943 20.7061 0.0401701 20.7499C0.0666459 20.7937 0.10447 20.8281 0.148962 20.849C0.193453 20.8699 0.242658 20.8763 0.290487 20.8674C0.338316 20.8585 0.382669 20.8347 0.418056 20.7989L8.89636 12.3333V12.3333Z" fill="#1C1C1C"/>
</svg>
