<svg width="20" height="20" viewBox="0 0 20 20" fill="none" xmlns="http://www.w3.org/2000/svg">
<g clip-path="url(#clip0)">
<path d="M15.8054 12.3895C15.396 11.9632 14.9021 11.7353 14.3787 11.7353C13.8595 11.7353 13.3614 11.959 12.9351 12.3853L11.6012 13.715C11.4914 13.6559 11.3817 13.601 11.2761 13.5461C11.1242 13.4702 10.9807 13.3984 10.8583 13.3224C9.6088 12.5288 8.47331 11.4947 7.38426 10.1566C6.85662 9.48963 6.50204 8.92822 6.24455 8.35836C6.59069 8.04178 6.91149 7.71253 7.22386 7.39594C7.34205 7.27775 7.46024 7.15534 7.57843 7.03715C8.46487 6.15071 8.46487 5.00256 7.57843 4.11612L6.42606 2.96375C6.29521 2.8329 6.16013 2.69782 6.0335 2.56274C5.78023 2.30103 5.5143 2.03088 5.23992 1.77761C4.83047 1.37238 4.34082 1.1571 3.82584 1.1571C3.31086 1.1571 2.81277 1.37238 2.39066 1.77761C2.38644 1.78183 2.38644 1.78183 2.38221 1.78605L0.947028 3.2339C0.406722 3.77421 0.0985794 4.43271 0.0310412 5.19673C-0.0702661 6.4293 0.292752 7.57745 0.571347 8.32881C1.25517 10.1735 2.27669 11.883 3.80052 13.715C5.64937 15.9226 7.87391 17.666 10.415 18.8943C11.3859 19.3544 12.6818 19.899 14.1296 19.9918C14.2183 19.996 14.3111 20.0003 14.3956 20.0003C15.3707 20.0003 16.1896 19.6499 16.8312 18.9534C16.8354 18.945 16.8438 18.9408 16.848 18.9323C17.0675 18.6664 17.3208 18.4258 17.5867 18.1683C17.7683 17.9952 17.954 17.8137 18.1355 17.6238C18.5534 17.189 18.7729 16.6824 18.7729 16.1632C18.7729 15.6398 18.5492 15.1375 18.1228 14.7154L15.8054 12.3895ZM17.3166 16.8344C17.3124 16.8344 17.3124 16.8386 17.3166 16.8344C17.152 17.0117 16.9831 17.1721 16.8016 17.3494C16.5272 17.6111 16.2486 17.8855 15.9869 18.1936C15.5606 18.6495 15.0583 18.8648 14.3998 18.8648C14.3365 18.8648 14.2689 18.8648 14.2056 18.8605C12.9519 18.7803 11.7869 18.2907 10.9131 17.8728C8.52397 16.7162 6.42606 15.0742 4.68273 12.9932C3.24333 11.2583 2.28091 9.65425 1.64352 7.93203C1.25095 6.88097 1.10743 6.06207 1.17075 5.2896C1.21296 4.79572 1.40291 4.38627 1.75327 4.03592L3.19267 2.59651C3.39951 2.40234 3.61901 2.29681 3.83429 2.29681C4.10022 2.29681 4.3155 2.45721 4.45057 2.59229C4.45479 2.59651 4.45901 2.60073 4.46323 2.60495C4.72072 2.84556 4.96555 3.09461 5.22304 3.36054C5.35389 3.49561 5.48897 3.63069 5.62405 3.76999L6.77642 4.92236C7.22386 5.3698 7.22386 5.78347 6.77642 6.23091C6.654 6.35332 6.53581 6.47574 6.4134 6.59393C6.05882 6.95695 5.72113 7.29464 5.35389 7.62389C5.34545 7.63233 5.33701 7.63655 5.33279 7.64499C4.96977 8.00801 5.03731 8.36258 5.11329 8.60319C5.11751 8.61585 5.12173 8.62852 5.12595 8.64118C5.42565 9.36721 5.84777 10.051 6.48938 10.8657L6.4936 10.8699C7.65864 12.3051 8.88699 13.4237 10.242 14.2806C10.415 14.3904 10.5923 14.479 10.7612 14.5634C10.9131 14.6394 11.0566 14.7112 11.1791 14.7872C11.1959 14.7956 11.2128 14.8083 11.2297 14.8167C11.3732 14.8885 11.5083 14.9222 11.6476 14.9222C11.998 14.9222 12.2175 14.7027 12.2892 14.631L13.7329 13.1873C13.8764 13.0438 14.1043 12.8708 14.3702 12.8708C14.632 12.8708 14.8472 13.0354 14.9781 13.1789C14.9823 13.1831 14.9823 13.1831 14.9865 13.1873L17.3124 15.5132C17.7472 15.9437 17.7472 16.387 17.3166 16.8344Z" fill="#111111"/>
<path d="M10.807 4.75765C11.9129 4.94338 12.9175 5.4668 13.7195 6.26882C14.5216 7.07083 15.0408 8.07546 15.2307 9.1814C15.2771 9.46 15.5177 9.65417 15.7921 9.65417C15.8259 9.65417 15.8554 9.64995 15.8892 9.64573C16.2016 9.59507 16.4084 9.29959 16.3577 8.98723C16.1298 7.64913 15.4966 6.42922 14.53 5.46258C13.5634 4.49594 12.3434 3.86277 11.0053 3.63483C10.693 3.58417 10.4017 3.79101 10.3468 4.09915C10.292 4.40729 10.4946 4.707 10.807 4.75765Z" fill="#111111"/>
<path d="M19.9756 8.82267C19.6 6.61923 18.5616 4.61419 16.966 3.0186C15.3704 1.42301 13.3653 0.384613 11.1619 0.00893186C10.8538 -0.0459429 10.5625 0.165114 10.5076 0.473257C10.457 0.785621 10.6638 1.07688 10.9762 1.13175C12.9432 1.46522 14.7372 2.3981 16.1639 3.82062C17.5907 5.24736 18.5193 7.04135 18.8528 9.0084C18.8992 9.28699 19.1398 9.48116 19.4142 9.48116C19.448 9.48116 19.4775 9.47694 19.5113 9.47272C19.8195 9.42629 20.0305 9.13081 19.9756 8.82267Z" fill="#111111"/>
</g>
<defs>
<clipPath id="clip0">
<rect width="20" height="20" fill="white"/>
</clipPath>
</defs>
</svg>
