<svg width="189" height="191" viewBox="0 0 189 191" fill="none" xmlns="http://www.w3.org/2000/svg">
<path d="M89.2444 44.2663C89.2444 19.8611 69.3869 0 44.9816 0C20.576 0 0.721924 19.8611 0.721924 44.2663C0.721924 68.6649 20.576 88.519 44.9816 88.519C69.3869 88.5194 89.2444 68.6654 89.2444 44.2663ZM22.7086 44.2663C22.7086 31.9778 32.6997 21.9867 44.9816 21.9867C57.2626 21.9867 67.2577 31.9778 67.2577 44.2663C67.2577 56.5407 57.2626 66.5323 44.9816 66.5323C32.6997 66.5323 22.7086 56.5411 22.7086 44.2663Z" fill="#1C1C1C"/>
<path d="M143.922 97.3943C119.516 97.3943 99.6616 117.248 99.6616 141.647C99.6616 166.053 119.516 185.914 143.922 185.914C168.327 185.914 188.181 166.053 188.181 141.647C188.181 117.248 168.327 97.3943 143.922 97.3943ZM143.922 163.927C131.64 163.927 121.648 153.935 121.648 141.647C121.648 129.373 131.64 119.381 143.922 119.381C156.203 119.381 166.194 129.373 166.194 141.647C166.194 153.935 156.202 163.927 143.922 163.927Z" fill="#1C1C1C"/>
<path d="M145.285 5.67574C139.541 2.49056 132.281 4.54551 129.078 10.2928L38.7252 172.53C35.5224 178.277 37.5879 185.534 43.3378 188.741C45.1737 189.757 47.1637 190.244 49.1247 190.244C53.3079 190.244 57.3664 188.04 59.5457 184.125L149.898 21.8871C153.1 16.1393 151.036 8.88244 145.285 5.67574Z" fill="#1C1C1C"/>
</svg>
